<?xml version="1.0" encoding="UTF-8"?>
<!DOCTYPE svg PUBLIC "-//W3C//DTD SVG 1.1//EN" "http://www.w3.org/Graphics/SVG/1.1/DTD/svg11.dtd">
<!-- Creator: CorelDRAW -->
<svg xmlns="http://www.w3.org/2000/svg" xml:space="preserve" width="8.5in" height="11in" version="1.1" style="shape-rendering:geometricPrecision; text-rendering:geometricPrecision; image-rendering:optimizeQuality; fill-rule:evenodd; clip-rule:evenodd"
viewBox="0 0 8500 11000"
 xmlns:xlink="http://www.w3.org/1999/xlink"
 xmlns:xodm="http://www.corel.com/coreldraw/odm/2003">
 <defs>
  <style type="text/css">
   <![CDATA[
    .fil0 {fill:white}
   ]]>
  </style>
 </defs>
 <g id="Layer_x0020_1">
  <metadata id="CorelCorpID_0Corel-Layer"/>
  <g id="_1737886073552">
   <path class="fil0" d="M1841.12 3857.76c0,62.98 17.07,75.22 54.91,113.06l865.67 865.67c141.54,141.54 186.07,218.57 414.53,218.57l353.16 0c80.92,0 119.81,-8.07 167.4,-43.63 81.02,-60.55 73.78,-134.27 73.78,-214.78 0,-60.77 -58.22,-90.45 -112.17,-94.56 -58.08,-4.41 -332.06,-0.3 -413.26,-0.19 -136.37,0.17 -185.19,-58.14 -270.25,-143.2l-204.52 -208.94c-33.62,-36.35 -70.19,-70.08 -105.57,-105.46l-568.5 -568.5c-13.87,-13.89 -37.65,-42.23 -60.14,-40.07 -26.46,2.54 -88.96,75.04 -109.98,96.06 -28.5,28.5 -85.06,74.42 -85.06,125.98z"/>
   <path class="fil0" d="M2719.72 3676.87c-43.48,0 -29.54,-2.11 -55.99,-4.31 -7.73,33.19 -16.72,283.1 -24.67,341.42 -1.82,13.4 -9.17,100.99 -0.24,114.16l368.37 368.1c146.3,146.3 134.12,141.05 349.93,141.05 83.26,0 166.53,0 249.8,0 -14.48,-21.61 -29.06,-36.37 -46.02,-57.34 -123.01,-152.04 -173.96,-247.43 -256.9,-419.27 -5.6,-11.6 -13,-28.23 -15.79,-40.2 -17.84,4.76 -88.48,81.9 -106.59,100.14 -16.33,16.44 -21.89,29.07 -48.45,29.07 -20.11,0 -30.15,-10.04 -30.15,-30.15 0,-34.03 123.95,-125.84 155.05,-172.28l-36.27 -105.85c-7.51,-19.39 -35.61,-93.48 -36.94,-109.49 -18.62,4.97 -90.17,83.71 -108.75,102.29 -14.65,14.66 -98.05,104.44 -110.9,104.44 -34.32,0 -38.76,-4.44 -38.76,-38.76 0,-13.99 43.93,-50.39 54.91,-61.37l177.65 -179.81c-5.81,-24.93 -17.47,-54.51 -25.29,-78.07 -33.78,-101.77 -69.59,-154.5 -181.43,-154.5 -53.91,0 -98.07,35.22 -121.94,67.57 -19.75,26.77 -25.16,83.17 -110.63,83.17z"/>
   <path class="fil0" d="M2082.31 3577.81c62.26,41.69 445.39,450.41 486.67,478.06l24.02 -337.75c5.74,-38.05 2.46,-79.36 6.76,-118.14 5.83,-52.66 18.55,-178.97 4.3,-225.2 -34.03,-110.32 -172.58,-148.96 -268.78,-52.2 -34.82,35.03 -240.36,236.42 -252.96,255.24z"/>
   <path class="fil0" d="M1841.12 5016.3c0,44.62 50.17,38.79 94.75,38.76l956.12 0c-3.8,-10.5 -82.5,-73.22 -86.13,-73.22l-930.28 0c-20.83,0 -34.46,13.62 -34.46,34.46z"/>
   <path class="fil0" d="M1841.12 4740.66c0,20.83 13.62,34.45 34.46,34.45l516.82 0c42.95,0 58.64,-73.22 -21.54,-73.22l-473.75 0c-30.97,0 -55.99,8.05 -55.99,38.76z"/>
  </g>
 </g>
</svg>
