<?xml version="1.0" encoding="UTF-8"?>
<!DOCTYPE svg PUBLIC "-//W3C//DTD SVG 1.1//EN" "http://www.w3.org/Graphics/SVG/1.1/DTD/svg11.dtd">
<!-- Creator: CorelDRAW -->
<svg xmlns="http://www.w3.org/2000/svg" xml:space="preserve" width="8.5in" height="11in" version="1.1" style="shape-rendering:geometricPrecision; text-rendering:geometricPrecision; image-rendering:optimizeQuality; fill-rule:evenodd; clip-rule:evenodd"
viewBox="0 0 8500 11000"
 xmlns:xlink="http://www.w3.org/1999/xlink"
 xmlns:xodm="http://www.corel.com/coreldraw/odm/2003">
 <defs>
  <style type="text/css">
   <![CDATA[
    .fil1 {fill:#141414}
    .fil2 {fill:#1664AD}
    .fil0 {fill:#141414;fill-rule:nonzero}
   ]]>
  </style>
 </defs>
 <g id="Layer_x0020_1">
  <metadata id="CorelCorpID_0Corel-Layer"/>
  <path class="fil0" d="M4462.66 4774.43l-268.64 1597.49 -449.47 0 142.5 -851.04c15.17,-87.02 33.93,-178.43 57.49,-273.83 18.76,-77.04 31.53,-136.12 38.71,-176.44 -9.58,23.95 -23.15,60.68 -41.11,109.78 -37.93,102.19 -72.65,189.61 -104.58,262.25l-411.55 929.28 -289.4 0 -110.17 -929.28c-10.38,-81.83 -17.17,-169.24 -21.16,-262.25 -3.19,-55.09 -6.38,-98.2 -9.58,-128.54 -21.55,220.74 -45.9,411.15 -72.25,571.22l-124.94 748.85 -361.65 0 265.45 -1597.49 644.66 0 84.62 706.94c6.79,57.88 13.18,98.6 18.36,122.94 10.78,-35.92 26.74,-77.04 47.51,-122.94l312.95 -706.94 652.24 0zm728.09 0l-266.25 1597.49 -453.85 0 265.85 -1597.49 454.26 0zm1110.1 603.95l304.17 993.54 -471.03 0 -180.03 -656.64 -243.09 268.24 -64.67 388.4 -444.68 0 265.85 -1597.49 444.68 0 -122.16 734.48c25.96,-61.08 64.28,-121.35 115.76,-180.83 51.5,-59.87 134.52,-158.87 249.08,-296.98l227.93 -256.67 454.65 0 -536.48 603.95zm1673.33 627.11l-61.87 366.44 -1176.36 0 265.85 -1597.49 1147.22 0 -58.68 349.68 -682.99 0 -41.91 251.48 575.2 0 -58.27 347.28 -574.81 0 -47.1 282.62 713.72 0z"/>
  <path class="fil1" d="M2135.74 6090.36c0,18.63 -12.19,30.83 -30.83,30.83l-462.45 0c-38.44,0 -52.48,-65.52 19.26,-65.52l423.92 0c27.7,0 50.1,7.2 50.1,34.69zm0 246.64c0,39.93 -44.88,34.7 -84.78,34.68l-855.54 0c3.39,-9.4 73.83,-65.51 77.08,-65.51l832.41 0c18.64,0 30.83,12.19 30.83,30.83zm-215.81 -1287.16c-55.7,37.31 -398.54,403.03 -435.47,427.77l-21.5 -302.23c-5.13,-34.04 -2.2,-71.01 -6.05,-105.71 -5.22,-47.13 -16.59,-160.15 -3.83,-201.51 30.43,-98.72 154.41,-133.3 240.49,-46.72 31.17,31.35 215.07,211.55 226.35,228.4zm-570.36 88.63c38.91,0 26.43,-1.89 50.11,-3.85 6.91,29.7 14.94,253.32 22.06,305.51 1.63,11.97 8.2,90.36 0.2,102.15l-329.61 329.38c-130.91,130.9 -120.02,126.2 -313.12,126.2 -74.5,0 -149.01,0 -223.53,0 12.97,-19.35 26.01,-32.55 41.19,-51.31 110.07,-136.04 155.65,-221.41 229.87,-375.17 5.02,-10.37 11.63,-25.26 14.13,-35.97 15.96,4.28 79.17,73.3 95.37,89.61 14.62,14.72 19.6,26.01 43.36,26.01 17.99,0 26.98,-8.99 26.98,-26.97 0,-30.45 -110.91,-112.61 -138.74,-154.16l32.47 -94.71c6.71,-17.35 31.85,-83.65 33.05,-97.97 16.65,4.45 80.7,74.9 97.31,91.53 13.12,13.1 87.73,93.45 99.23,93.45 30.71,0 34.69,-3.98 34.69,-34.68 0,-12.52 -39.3,-45.08 -49.15,-54.92l-158.95 -160.89c5.18,-22.31 15.61,-48.77 22.63,-69.87 30.22,-91.07 62.28,-138.24 162.35,-138.24 48.23,0 87.75,31.51 109.11,60.45 17.67,23.97 22.52,74.43 98.99,74.43z"/>
  <path class="fil2" d="M2135.74 5300.33c0,56.35 -15.27,67.3 -49.14,101.15l-774.61 774.61c-126.65,126.66 -166.48,195.58 -370.92,195.58l-316 0c-72.41,0 -107.22,-7.22 -149.8,-39.05 -72.51,-54.17 -66.02,-120.14 -66.02,-192.18 0,-54.37 52.08,-80.94 100.37,-84.61 51.97,-3.94 297.12,-0.27 369.78,-0.17 122.03,0.14 165.72,-52.03 241.82,-128.13l183.01 -186.96c30.08,-32.53 62.8,-62.7 94.46,-94.37l508.7 -508.7c12.4,-12.43 33.69,-37.79 53.81,-35.86 23.68,2.28 79.61,67.15 98.42,85.96 25.51,25.5 76.11,66.58 76.11,112.72z"/>
 </g>
</svg>
